<?xml version="1.0" encoding="UTF-8"?>
<svg width="257px" height="29px" viewBox="0 0 257 29" version="1.1" xmlns="http://www.w3.org/2000/svg" xmlns:xlink="http://www.w3.org/1999/xlink">
    <title>9A03C6AB-0A21-4376-966B-A0456FD32532@1x</title>
    <g id="Page-1" stroke="none" stroke-width="1" fill="none" fill-rule="evenodd">
        <g id="Home" transform="translate(-592.000000, -42.000000)" fill="#000000" fill-rule="nonzero">
            <g id="Tiia-/-Logo-Copy" transform="translate(591.000000, 40.000000)">
                <path d="M13.1217521,29.8666667 L13.1217521,8.25173333 L19.6101322,8.25173333 L19.6101322,3.1744 L1.63115702,3.1744 L1.63115702,8.25173333 L7.86580165,8.25173333 L7.86580165,29.8666667 L13.1217521,29.8666667 Z M30.2819504,29.8666667 L30.2819504,3.1744 L25.026,3.1744 L25.026,29.8666667 L30.2819504,29.8666667 Z M42.7661653,29.8666667 L42.7661653,3.1744 L37.5102149,3.1744 L37.5102149,29.8666667 L42.7661653,29.8666667 Z M52.1693058,29.8666667 L54.3420496,24.6442667 L63.1972066,24.6442667 L65.2548099,29.8666667 L71.3444628,29.8666667 L59.3101488,2.12266667 L59.0201653,2.12266667 L46.9858512,29.8666667 L52.1693058,29.8666667 Z M61.4551736,20.2197333 L56.1842975,20.2197333 L58.8922314,13.7130667 L61.4551736,20.2197333 Z M111.718264,30.9546667 L111.718264,3.1744 L106.426066,3.1744 L106.530545,19.2576 L87.9033719,2.12266667 L87.6858843,2.12266667 L87.6858843,29.8666667 L93.0143306,29.8666667 L92.9098512,14.0885333 L111.573273,30.9546667 L111.718264,30.9546667 Z M131.125835,29.8666667 L131.125835,21.5616 L141.130264,3.1744 L134.641884,3.1744 L128.660975,15.4965333 L122.535074,3.1744 L116.046694,3.1744 L125.869884,21.5616 L125.869884,29.8666667 L131.125835,29.8666667 Z M150.714645,29.8666667 L150.714645,19.0229333 L162.640215,19.0229333 L162.640215,29.8666667 L167.896165,29.8666667 L167.896165,3.1744 L162.640215,3.1744 L162.640215,13.9456 L150.714645,13.9456 L150.714645,3.1744 L145.458694,3.1744 L145.458694,29.8666667 L150.714645,29.8666667 Z M224.146562,29.8666667 L224.146562,24.7893333 L211.604777,24.7893333 L211.604777,3.1744 L206.348826,3.1744 L206.348826,29.8666667 L224.146562,29.8666667 Z M234.99962,29.8666667 L234.99962,17.92 L243.372893,29.504 L243.445388,29.504 L252.144893,17.1306667 L252.144893,29.8666667 L257.400843,29.8666667 L257.400843,2.0864 L257.328347,2.0864 L243.49443,21.2885333 L229.961157,2.0864 L229.924909,2.0864 L229.924909,29.8666667 L234.99962,29.8666667 Z" id="TIIANYHOLM"></path>
                <g id="nipple" transform="translate(173.499669, 2.880000)">
                    <path d="M13.8226437,0 C15.7148101,0 17.4963953,0.368794326 19.1673993,1.10638298 C20.8384034,1.84397163 22.3189621,2.85815603 23.6090755,4.14893617 C24.8991889,5.43971631 25.9067061,6.92104019 26.631627,8.5929078 C27.3565478,10.2647754 27.7190083,12.0349882 27.7190083,13.9035461 C27.7190083,15.8212766 27.3565478,17.6160757 26.631627,19.2879433 C25.9067061,20.9598109 24.8991889,22.4288416 23.6090755,23.6950355 C22.3189621,24.9612293 20.8384034,25.9508274 19.1673993,26.6638298 C17.4963953,27.3768322 15.7148101,27.7333333 13.8226437,27.7333333 C11.9059038,27.7333333 10.1120318,27.3768322 8.44102778,26.6638298 C6.77002374,25.9508274 5.3017518,24.9612293 4.03621197,23.6950355 C2.77067215,22.4288416 1.78158519,20.9598109 1.06895112,19.2879433 C0.356317039,17.6160757 2.46675027e-13,15.8212766 2.46675027e-13,13.9035461 C2.46675027e-13,12.0349882 0.356317039,10.2647754 1.06895112,8.5929078 C1.78158519,6.92104019 2.77067215,5.43971631 4.03621197,4.14893617 C5.3017518,2.85815603 6.77002374,1.84397163 8.44102778,1.10638298 C10.1120318,0.368794326 11.9059038,0 13.8226437,0 Z M13.8595041,5.16312057 C12.6799719,5.16312057 11.5864472,5.38439716 10.57893,5.82695035 C9.57141287,6.26950355 8.68676367,6.89030733 7.92498242,7.6893617 C7.16320116,8.48841608 6.57343503,9.41654846 6.15568402,10.4737589 C5.73793301,11.5309693 5.5290575,12.6742317 5.5290575,13.9035461 C5.5290575,15.1082742 5.7440764,16.2330969 6.17411421,17.2780142 C6.60415201,18.3229314 7.20620494,19.2449173 7.98027299,20.0439716 C8.75434104,20.843026 9.65127704,21.4638298 10.671081,21.906383 C11.6908849,22.3489362 12.8028398,22.5702128 14.0069457,22.5702128 C15.1619043,22.5702128 16.2369989,22.3489362 17.2322292,21.906383 C18.2274596,21.4638298 19.0936786,20.843026 19.8308862,20.0439716 C20.5680939,19.2449173 21.1455732,18.3229314 21.5633242,17.2780142 C21.9810753,16.2330969 22.1899508,15.1082742 22.1899508,13.9035461 C22.1899508,12.6742317 21.9749319,11.5309693 21.5448941,10.4737589 C21.1148563,9.41654846 20.5250901,8.48841608 19.7755957,7.6893617 C19.0261012,6.89030733 18.1475954,6.26950355 17.1400782,5.82695035 C16.1325611,5.38439716 15.0390364,5.16312057 13.8595041,5.16312057 Z" id="Combined-Shape"></path>
                </g>
            </g>
        </g>
    </g>
</svg>